<?xml version="1.0" encoding="UTF-8"?>
<svg version="1.1" xmlns="http://www.w3.org/2000/svg" width="512" height="512">
<path d="M0 0 C3.78112428 2.80535027 6.18672139 6.22591991 7.0625 10.875 C7.35404466 16.75074622 5.03863869 21.72927988 2.63671875 26.98046875 C-12.20342438 59.69013824 -12.40807289 96.42391813 0.0859375 129.90234375 C13.09270707 162.97869863 38.41962841 189.58201961 71 204 C103.22818641 216.87166061 139.95943282 219.67707209 172.578125 206.1875 C175.25273022 205.02895543 177.88843298 203.80427786 180.51953125 202.55078125 C186.62896949 199.82861853 192.41916487 197.82355942 199 200 C201.88921613 201.60883133 204.18135943 203.22196064 206 206 C207.43011981 212.24353233 206.71443964 216.55028785 204.5625 222.5 C204.29099121 223.27827148 204.01948242 224.05654297 203.73974609 224.85839844 C200.82932486 232.92381535 197.08949142 240.47766708 193 248 C192.50862549 248.92039062 192.50862549 248.92039062 192.00732422 249.859375 C185.70271352 261.6204425 178.10212316 271.9590327 169.0546875 281.7578125 C167.28310243 283.69106313 165.60217659 285.66289334 163.9375 287.6875 C160.63218741 291.5496859 156.92925858 294.78515207 153 298 C151.62908203 299.12728516 151.62908203 299.12728516 150.23046875 300.27734375 C113.21809666 329.7475721 66.6390006 343.27054919 19.54663086 338.12036133 C-19.22254762 333.15157039 -52.3686911 315.99864675 -81 290 C-81.77085937 289.30261719 -82.54171875 288.60523438 -83.3359375 287.88671875 C-89.61847291 281.89907786 -94.8412731 274.95274831 -100 268 C-100.42571289 267.42926758 -100.85142578 266.85853516 -101.29003906 266.27050781 C-127.02730828 231.23642985 -137.73054669 184.75974573 -131.8125 141.8515625 C-126.1232698 105.79455301 -111.14795743 73.50486161 -86 47 C-84.94918468 45.75768095 -83.9062691 44.50859186 -82.875 43.25 C-68.78556021 26.74076722 -23.34404726 -7.93070319 0 0 Z " fill="#3AB5DC" transform="translate(219,87)"/>
<path d="M0 0 C1.66562971 -0.05878297 3.33423749 -0.05489105 5 0 C6.37109375 1.36328125 6.37109375 1.36328125 7.4375 3.3125 C7.85257812 4.03695312 8.26765625 4.76140625 8.6953125 5.5078125 C9.61249209 7.25979028 10.50067724 9.0271036 11.3671875 10.8046875 C14.6750493 17.40253077 17.36483765 20.80654601 24 24 C25.98652754 24.98529641 27.96551583 25.9859097 29.9375 27 C30.87464844 27.45375 31.81179688 27.9075 32.77734375 28.375 C35 30 35 30 35.81640625 32.6875 C35.87699219 33.450625 35.93757813 34.21375 36 35 C28.89798106 39.55601215 28.89798106 39.55601215 25.1953125 41.38671875 C18.59806318 44.64958596 15.12427988 47.34440378 12 54 C10.98561709 56.14889011 9.96446727 58.29459552 8.9375 60.4375 C8.47214844 61.46746094 8.00679688 62.49742187 7.52734375 63.55859375 C6 66 6 66 4.06640625 67.09765625 C2 67 2 67 -0.02734375 65.5703125 C-2.12719765 62.83426524 -3.26126318 60.26506584 -4.58789062 57.11035156 C-8.82176374 47.39959449 -13.92277934 43.27884137 -23.61157227 39.13232422 C-24.82478149 38.61049561 -24.82478149 38.61049561 -26.0625 38.078125 C-26.79597656 37.79356445 -27.52945312 37.50900391 -28.28515625 37.21582031 C-30 36 -30 36 -30.74609375 33.37011719 C-30.82988281 32.58797852 -30.91367187 31.80583984 -31 31 C-30.45174561 30.77151367 -29.90349121 30.54302734 -29.33862305 30.30761719 C-13.73404028 23.5294226 -6.52136971 15.64806802 0 0 Z " fill="#FFCC6F" transform="translate(373,161)"/>
<path d="M0 0 C3.12591387 2.25181573 4.27069337 5.43353578 5.859375 8.83203125 C8.9845706 15.0736294 11.54345201 18.7020643 18.109375 21.51953125 C19.7656377 22.33193859 21.41159826 23.16566839 23.046875 24.01953125 C23.79839844 24.38046875 24.54992187 24.74140625 25.32421875 25.11328125 C27.109375 26.51953125 27.109375 26.51953125 27.86328125 29.17578125 C27.94449219 29.94921875 28.02570313 30.72265625 28.109375 31.51953125 C26.91441406 32.04417969 25.71945312 32.56882813 24.48828125 33.109375 C11.7908498 39.13938813 6.26632134 45.52161387 1.109375 58.51953125 C-0.540625 58.51953125 -2.190625 58.51953125 -3.890625 58.51953125 C-4.56931641 56.83537109 -4.56931641 56.83537109 -5.26171875 55.1171875 C-9.7198315 45.03464766 -13.8967714 39.61718333 -24.21264648 35.29711914 C-26.390625 34.37890625 -26.390625 34.37890625 -29.890625 32.51953125 C-30.890625 29.78515625 -30.890625 29.78515625 -30.890625 27.51953125 C-29.69566406 26.99488281 -28.50070312 26.47023438 -27.26953125 25.9296875 C-15.97579742 20.56635025 -10.38496995 15.5007837 -5.421875 3.984375 C-3.29136716 -0.83644248 -3.29136716 -0.83644248 0 0 Z " fill="#FFCC6F" transform="translate(310.890625,94.48046875)"/>
<path d="M0 0 C1.7890625 0.08984375 1.7890625 0.08984375 4 1 C5.24655553 3.1770413 6.31679152 5.29843956 7.375 7.5625 C10.75533736 14.22516943 14.62191429 17.37422368 21.33935547 20.51391602 C25.84942708 22.63423058 25.84942708 22.63423058 26.91015625 25.2109375 C26.93980469 25.80132812 26.96945312 26.39171875 27 27 C17 33 17 33 14.421875 34.25390625 C10.61640761 36.99752548 9.01167243 40.99367174 6.95117188 45.08203125 C4.44544345 49.81562515 4.44544345 49.81562515 1.75390625 50.9296875 C1.17511719 50.95289063 0.59632813 50.97609375 0 51 C-0.77923828 49.55367187 -0.77923828 49.55367187 -1.57421875 48.078125 C-2.27808795 46.80177552 -2.9825464 45.52575086 -3.6875 44.25 C-4.02716797 43.61578125 -4.36683594 42.9815625 -4.71679688 42.328125 C-8.1782102 36.11699082 -12.55219601 33.06871537 -18.8125 29.75 C-19.78832031 29.22921875 -20.76414062 28.7084375 -21.76953125 28.171875 C-22.50558594 27.78515625 -23.24164063 27.3984375 -24 27 C-23.921875 25.234375 -23.921875 25.234375 -23 23 C-20.75877083 21.60363209 -18.60372118 20.41736739 -16.25 19.25 C-10.25248685 16.05889021 -6.84740358 13.30944495 -4 7 C-3.23999737 5.66046359 -2.46965345 4.32672446 -1.6875 3 C-1.130625 2.01 -0.57375 1.02 0 0 Z " fill="#FFCC70" transform="translate(399,86)"/>
</svg>
